<svg xmlns="http://www.w3.org/2000/svg" viewBox="0 0 240 64" role="img" aria-label="FreshOrder">
  <title>FreshOrder</title>
  <g fill="#FFFFFF">
    <path d="M10 28 L32 22 L54 28 L54 50 Q54 54 50 54 L14 54 Q10 54 10 50 Z" opacity="0.95"/>
    <path d="M10 28 L32 34 L54 28" fill="none" stroke="#FFFFFF" stroke-width="1.5" opacity="0.5"/>
    <rect x="27" y="29" width="10" height="3" rx="1.5" opacity="0.6"/>
    <path d="M32 22 C 32 12, 24 6, 16 12 C 18 20, 26 22, 32 22 Z" opacity="0.85"/>
    <path d="M32 22 C 32 14, 40 10, 48 14 C 44 20, 36 22, 32 22 Z" opacity="0.7"/>
  </g>
  <line x1="32" y1="22" x2="32" y2="14" stroke="#FFFFFF" stroke-width="2" stroke-linecap="round"/>
  <text x="68" y="42" font-family="Pretendard, system-ui, -apple-system, 'Segoe UI', Roboto, sans-serif" font-size="22" font-weight="800" fill="#FFFFFF" letter-spacing="-0.5">프레시오더</text>
</svg>
